<?xml version="1.0" standalone="no"?>
<!DOCTYPE svg PUBLIC "-//W3C//DTD SVG 20010904//EN"
 "http://www.w3.org/TR/2001/REC-SVG-20010904/DTD/svg10.dtd">
<svg version="1.0" xmlns="http://www.w3.org/2000/svg"
 width="900.000000pt" height="900.000000pt" viewBox="0 0 900.000000 900.000000"
 preserveAspectRatio="xMidYMid meet">
<metadata>
Created by potrace 1.14, written by Peter Selinger 2001-2017
</metadata>
<g transform="translate(0.000000,900.000000) scale(0.100000,-0.100000)"
fill="#000000" stroke="none">
<path d="M5299 8532 c-41 -27 -101 -66 -134 -88 -65 -42 -209 -180 -314 -303
-87 -101 -175 -217 -172 -226 2 -4 -2 -11 -7 -14 -5 -3 -40 -60 -78 -126 -84
-145 -142 -279 -159 -364 -2 -13 -6 -30 -9 -39 -3 -9 -7 -33 -10 -52 -3 -19
-7 -44 -10 -55 -9 -46 -18 -105 -20 -141 -11 -128 -25 -191 -39 -173 -22 26
-79 132 -82 152 -3 15 -10 38 -15 52 -5 14 -7 25 -4 25 2 0 0 9 -6 21 -12 22
-20 49 -25 89 -2 14 -4 25 -5 25 -1 0 -3 54 -6 120 -4 122 -10 203 -18 265 -2
19 -7 78 -11 130 -4 52 -8 116 -10 142 -4 54 -30 115 -60 141 -71 62 -169 119
-191 110 -11 -4 -22 1 -30 12 -13 18 -15 17 -34 -5 l-20 -23 -9 25 c-5 14 -12
38 -14 54 -10 55 -37 103 -67 119 -20 10 -29 12 -28 4 2 -7 -11 -16 -28 -20
-37 -11 -185 -151 -267 -255 -32 -39 -57 -74 -57 -77 0 -3 -16 -29 -35 -59
-68 -101 -182 -358 -200 -448 -2 -8 -8 -33 -13 -55 -6 -22 -13 -58 -17 -80 -3
-23 -7 -52 -10 -65 -20 -103 -36 -485 -21 -508 3 -4 1 -13 -3 -20 -5 -9 -21
-2 -56 25 -73 58 -431 419 -493 498 -57 73 -146 163 -322 325 -56 52 -114 107
-129 122 -68 69 -123 108 -152 108 -19 0 -29 -5 -29 -15 0 -8 4 -15 8 -15 4 0
15 -12 24 -27 13 -22 16 -60 17 -186 l2 -159 -40 3 c-47 4 -56 -2 -41 -28 21
-35 132 -339 156 -426 13 -48 31 -101 39 -117 8 -16 15 -38 15 -50 0 -21 -7
-21 -72 -4 -22 6 -56 13 -93 19 -16 2 -58 10 -92 18 -34 7 -91 15 -125 16 -34
1 -66 5 -71 8 -4 3 -16 -2 -26 -11 -15 -14 -16 -24 -9 -64 5 -26 11 -65 14
-87 3 -22 17 -80 31 -130 14 -49 27 -105 30 -124 5 -29 3 -32 -13 -28 -19 6
-77 18 -104 23 -89 16 -139 20 -201 17 -41 -2 -101 -4 -134 -6 -33 -1 -65 -6
-71 -9 -11 -8 -11 -249 0 -303 17 -78 50 -191 57 -199 5 -6 9 -18 9 -27 0 -9
7 -22 15 -29 9 -7 13 -15 11 -17 -2 -3 11 -32 31 -64 19 -33 37 -72 39 -87 3
-14 9 -29 13 -32 5 -3 46 -66 92 -140 45 -74 85 -137 89 -140 3 -3 28 -31 55
-63 39 -47 68 -68 144 -108 142 -72 222 -118 263 -150 20 -16 39 -29 42 -29 5
0 34 -22 60 -45 6 -6 41 -30 79 -54 37 -24 67 -48 67 -54 0 -10 -2 -10 -140
28 -125 34 -291 44 -514 31 -38 -3 -80 0 -94 5 -20 8 -23 7 -19 -5 6 -14 -25
-30 -79 -40 -10 -2 -44 -13 -74 -25 -30 -11 -78 -25 -105 -30 -28 -6 -59 -12
-71 -15 -11 -2 -107 -30 -214 -61 -251 -73 -378 -137 -575 -288 -77 -59 -78
-66 -9 -117 24 -19 44 -37 44 -42 0 -4 7 -8 15 -8 8 0 15 -4 15 -9 0 -14 167
-103 289 -154 161 -67 267 -103 331 -112 30 -4 64 -9 75 -12 11 -3 41 -7 68
-10 63 -7 79 -32 25 -38 -40 -5 -122 -16 -148 -20 -29 -5 -212 -7 -226 -3 -37
11 -140 -72 -201 -162 -17 -25 -45 -58 -62 -74 -17 -17 -31 -33 -31 -37 0 -5
26 -25 58 -46 31 -21 62 -43 67 -49 23 -26 125 -103 176 -132 50 -28 232 -107
269 -117 8 -2 35 -8 60 -14 25 -7 54 -14 65 -17 35 -9 69 -16 113 -22 l44 -7
-34 -47 c-103 -143 -149 -197 -197 -227 -28 -18 -51 -37 -51 -42 0 -5 -5 -9
-11 -9 -6 0 -50 -29 -97 -65 -48 -35 -102 -74 -120 -87 -18 -13 -42 -31 -54
-41 -11 -9 -25 -17 -29 -17 -4 0 -14 -6 -21 -12 -17 -16 -64 -44 -98 -58 -16
-7 -34 -31 -50 -66 -14 -31 -33 -60 -42 -65 -34 -18 -21 -45 29 -65 27 -10 59
-20 72 -22 26 -3 100 30 206 93 99 60 212 115 346 169 150 60 159 62 159 30 0
-14 -4 -34 -10 -44 -5 -10 -11 -33 -14 -52 -4 -33 -3 -34 82 -78 47 -25 88
-45 91 -46 4 0 24 -8 46 -18 22 -9 70 -26 108 -36 64 -18 70 -18 112 -2 24 9
47 13 51 9 4 -3 -2 -23 -13 -44 -118 -227 -157 -317 -213 -487 -38 -116 -88
-240 -127 -320 -36 -72 -74 -153 -85 -180 -26 -66 -29 -157 -6 -204 9 -20 17
-43 18 -49 0 -28 18 -10 46 48 33 70 67 109 139 164 28 20 65 50 82 66 18 16
35 29 38 29 3 0 18 11 33 24 68 61 88 76 100 76 39 0 -22 -110 -86 -156 -23
-16 -64 -64 -93 -108 -29 -43 -63 -90 -76 -104 -12 -14 -23 -30 -23 -37 0 -6
23 -22 52 -36 40 -19 65 -23 112 -21 34 1 162 4 286 6 238 3 310 13 395 57 44
23 267 159 275 168 14 16 80 61 89 61 6 0 11 -12 11 -27 0 -46 32 -187 46
-204 8 -8 14 -25 14 -37 0 -12 4 -22 9 -22 5 0 14 -13 19 -30 6 -16 25 -50 42
-75 28 -41 31 -51 26 -103 -2 -31 -12 -77 -20 -101 -9 -24 -16 -50 -16 -58 0
-16 -30 -85 -41 -93 -3 -3 -9 -15 -13 -27 -8 -24 -81 -73 -138 -92 -20 -7 -41
-18 -47 -25 -8 -10 2 -11 48 -5 44 5 71 16 117 47 32 22 84 52 114 68 30 15
57 32 58 36 2 4 10 8 19 8 8 0 27 8 41 19 15 10 38 22 52 26 14 4 32 14 42 22
9 8 22 16 30 17 7 2 26 8 41 14 15 7 40 15 55 18 15 4 32 10 37 14 24 17 247
81 263 76 10 -4 29 -29 43 -56 13 -27 27 -50 32 -50 4 0 7 -6 7 -13 0 -7 14
-32 31 -55 17 -23 27 -42 23 -42 -4 0 1 -9 11 -20 9 -10 15 -26 12 -35 -4 -8
-3 -15 1 -15 13 0 147 54 177 72 17 9 45 24 62 32 46 21 114 69 160 113 55 53
143 158 143 170 0 6 8 21 18 34 20 26 78 160 96 224 15 51 32 51 60 0 11 -22
23 -42 27 -45 3 -3 18 -23 35 -45 33 -46 37 -51 97 -125 25 -30 62 -84 84
-120 82 -134 99 -156 151 -198 29 -24 60 -46 69 -49 49 -19 81 -80 122 -228
11 -44 43 -85 66 -85 7 0 26 11 42 24 24 20 29 33 31 78 2 58 2 56 22 140 7
32 17 58 22 58 4 0 8 7 8 15 0 8 8 19 18 24 11 6 27 32 37 58 10 26 30 73 44
103 14 30 27 62 28 70 2 8 11 58 21 110 23 122 21 208 -8 338 -6 28 -10 58 -7
65 4 12 43 -72 39 -86 -1 -4 2 -7 8 -7 5 0 10 -7 10 -15 0 -8 9 -34 19 -58 10
-23 24 -64 31 -92 7 -27 16 -54 20 -60 4 -5 7 -71 7 -145 l0 -135 39 -76 c45
-87 43 -81 54 -181 8 -83 26 -122 64 -139 33 -15 75 9 112 63 16 24 32 45 35
48 13 10 91 144 94 161 6 30 69 127 134 205 10 12 21 44 20 58 0 5 4 12 10 15
5 4 11 23 13 44 1 20 7 37 14 37 6 0 53 -25 103 -55 51 -30 94 -55 96 -55 2 0
21 -11 42 -26 l37 -25 23 48 c13 26 32 62 43 78 l19 31 -30 64 c-56 117 -62
147 -73 337 -5 84 -17 179 -31 243 -10 42 -15 64 -19 85 -2 11 -9 33 -15 48
-6 16 -11 30 -11 33 0 13 58 0 117 -27 87 -40 99 -44 153 -59 25 -6 70 -23
100 -37 30 -15 62 -29 70 -33 16 -8 51 -16 109 -25 19 -3 37 -7 40 -9 6 -4 68
-11 185 -21 32 -3 63 -8 69 -12 6 -3 25 -7 44 -9 31 -2 33 1 34 30 4 108 -5
320 -17 389 -6 36 19 36 87 2 48 -25 187 -82 219 -90 8 -2 87 -25 175 -50 172
-49 237 -56 297 -31 21 9 41 15 45 14 12 -3 92 22 97 30 2 4 -33 7 -77 8 -94
0 -102 2 -142 30 -17 11 -43 26 -58 34 -55 27 -77 55 -69 87 18 70 4 128 -63
266 -29 59 -51 107 -49 107 2 0 -4 17 -15 37 -10 21 -21 66 -25 100 -8 79 -12
89 -54 141 -39 48 -36 59 19 66 93 12 276 73 312 104 9 8 17 12 17 9 0 -9 73
29 151 80 37 23 81 45 99 48 44 8 50 12 45 33 -10 44 -48 168 -54 177 -15 21
-43 106 -37 113 4 3 12 7 19 8 15 2 114 22 143 28 12 2 37 7 55 10 19 3 45 8
59 11 14 3 45 8 70 11 25 3 59 7 75 10 77 13 170 7 210 -15 51 -27 55 -27 55
7 0 29 -29 72 -47 72 -6 0 -16 7 -23 15 -7 9 -15 13 -18 10 -3 -3 -10 -1 -16
4 -33 27 -166 94 -346 176 -63 29 -135 62 -160 73 -25 11 -72 32 -105 45 -61
26 -80 50 -48 60 10 4 35 13 55 20 21 8 39 13 40 12 2 -2 24 -5 51 -8 26 -3
51 -8 55 -11 11 -7 58 -16 111 -22 54 -6 196 33 298 82 39 19 76 34 82 34 6 0
11 5 11 10 0 6 4 10 9 10 6 0 30 14 54 30 25 17 49 30 55 30 6 0 21 10 34 21
l24 21 -21 45 c-27 55 -76 108 -118 127 -40 17 -108 43 -167 63 -57 20 -199
90 -217 109 -8 8 -18 14 -21 14 -4 0 -18 10 -32 23 -34 31 -116 87 -128 87 -5
0 -15 7 -22 15 -6 8 -15 14 -18 13 -4 -1 -48 18 -98 43 -50 24 -95 45 -100 46
-17 5 -129 45 -131 47 -2 1 7 22 19 47 12 24 22 46 23 49 0 3 15 42 33 87 18
45 32 88 32 94 0 17 85 162 134 229 36 49 166 294 164 309 0 3 1 8 2 11 12 31
17 117 7 126 -3 3 -12 2 -19 -2 -7 -5 -33 -16 -58 -25 -76 -28 -212 -84 -280
-116 -36 -17 -103 -49 -150 -71 -81 -38 -138 -63 -187 -83 -47 -18 -22 3 86
73 14 9 31 21 36 25 6 5 55 39 110 76 55 37 105 71 112 77 7 5 15 10 18 10 3
0 26 15 52 34 110 78 319 191 412 223 57 19 91 41 91 59 0 8 -4 14 -8 14 -5 0
-22 11 -38 25 -16 14 -35 25 -41 25 -7 0 -13 4 -13 9 0 5 -32 19 -71 31 -78
25 -144 28 -322 15 l-108 -7 11 23 c18 42 70 261 64 271 -10 16 -153 63 -224
73 -103 14 -270 4 -409 -26 -53 -11 -107 -22 -121 -24 -14 -3 -54 -10 -90 -17
-36 -7 -68 -11 -72 -10 -5 1 -8 -3 -8 -10 0 -9 -3 -8 -12 1 -11 11 -10 14 0
18 6 3 10 8 7 13 -3 5 1 15 9 22 14 15 87 161 90 182 1 7 18 46 38 87 44 91
83 221 94 313 3 22 7 43 10 47 5 9 16 114 16 159 1 110 -37 235 -67 224 -11
-5 -14 -2 -9 10 4 11 0 16 -12 17 -92 5 -144 4 -169 -4 -16 -4 -43 -11 -60
-13 -94 -15 -384 -136 -437 -181 -28 -24 -28 1 -1 68 23 55 27 78 26 169 0 58
-4 123 -10 145 -18 74 -74 194 -91 198 -45 10 -148 -34 -314 -134 -54 -33
-102 -59 -107 -59 -5 0 -9 23 -9 50 -1 28 -3 54 -6 58 -3 5 -8 23 -11 41 -6
33 -74 192 -86 201 -14 10 -87 137 -100 173 -13 36 -14 36 -25 16 -13 -25 -25
-12 -19 20 2 11 0 21 -5 21 -4 0 -51 -43 -103 -95 -53 -53 -98 -92 -101 -87
-3 5 -7 19 -10 33 -34 156 -83 284 -130 342 l-23 28 -74 -49z m-779 -2481 c0
-6 -7 -8 -16 -4 -11 4 -23 -2 -34 -17 -11 -14 -22 -20 -30 -15 -7 4 -8 10 -2
14 5 3 17 21 26 40 l18 33 19 -21 c10 -11 19 -25 19 -30z m-621 -86 c-16 -16
-28 14 -15 40 l11 24 7 -27 c4 -15 3 -31 -3 -37z m-204 -133 c-2 -2 -15 -2
-29 2 -18 4 -23 11 -19 26 6 21 6 21 29 -1 13 -12 22 -24 19 -27z m1852 -114
c1 -58 -1 -69 -10 -57 -9 11 -22 15 -45 11 -20 -2 -32 0 -32 7 0 6 -6 11 -14
11 -7 0 -18 6 -24 13 -8 10 -3 16 21 27 34 15 49 25 74 52 9 9 19 15 23 13 3
-2 7 -37 7 -77z m-2435 -123 c20 -8 48 -16 64 -19 47 -9 84 -27 84 -43 0 -12
-5 -11 -29 3 -26 16 -31 16 -61 0 -18 -9 -39 -16 -47 -16 -10 0 -12 -6 -8 -19
3 -11 1 -22 -4 -25 -5 -4 -17 20 -26 51 -9 32 -22 64 -27 71 -14 17 10 16 54
-3z m-197 -421 c-22 -17 -46 -15 -53 4 -2 8 8 12 35 12 36 -1 37 -1 18 -16z
m-165 -380 c0 -29 0 -29 -47 -1 l-38 22 35 6 c44 7 50 4 50 -27z m130 -869
c-7 -8 -20 -13 -30 -10 -24 7 -73 -82 -59 -108 14 -24 0 -22 -70 12 -33 16
-76 32 -97 35 l-37 7 30 19 c17 10 34 23 38 29 9 15 25 4 19 -13 -4 -11 2 -12
28 -7 22 5 40 3 55 -7 21 -13 23 -12 32 10 5 14 21 32 35 41 14 10 26 26 26
36 0 32 14 33 29 2 12 -25 12 -33 1 -46z m240 -919 c0 -3 -5 -17 -11 -33 -6
-15 -10 -30 -9 -32 2 -6 -64 -48 -87 -55 -26 -8 -28 -4 -10 25 31 53 117 122
117 95z m-168 -210 c-12 -25 -25 -46 -30 -46 -12 0 0 58 19 87 24 39 32 8 11
-41z m4144 -24 c32 -21 66 -41 74 -45 8 -4 29 -16 45 -27 31 -20 73 -41 90
-44 6 -1 33 -12 60 -25 178 -82 199 -95 186 -119 -5 -9 -7 -52 -5 -94 1 -43
-1 -78 -5 -78 -8 0 -105 87 -225 203 -45 43 -96 88 -113 100 -18 12 -33 28
-33 35 0 6 -5 12 -12 12 -6 0 -18 7 -27 15 -40 38 -97 85 -103 85 -11 0 -10
20 0 20 5 0 35 -17 68 -38z m-2103 -276 c17 -13 17 -15 1 -30 -15 -16 -18 -16
-35 0 -14 13 -15 19 -6 30 15 17 18 17 40 0z m-407 -42 c-4 -9 1 -28 9 -41 16
-24 16 -24 -4 -14 -31 17 -53 53 -38 63 21 14 40 9 33 -8z"/>
</g>
</svg>
